<svg width="88" height="93" viewBox="0 0 88 93" fill="none" xmlns="http://www.w3.org/2000/svg">
<mask id="path-1-outside-1_5290_352" maskUnits="userSpaceOnUse" x="14.541" y="18.0538" width="53.3233" height="58.8019" fill="black">
<rect fill="white" x="14.541" y="18.0538" width="53.3233" height="58.8019"/>
<path d="M52.6175 33.1255L44.7961 36.3185C42.7365 32.4586 39.5089 31.4951 34.5316 33.527C29.9099 35.4137 28.1579 38.0646 29.3674 41.0272C30.3833 43.5158 32.6822 44.2364 37.5023 43.5129C42.3816 42.7653 47.1425 42.066 50.578 42.1843C54.6436 42.3218 58.361 43.6385 60.6348 49.2082C64.1665 57.8591 59.221 64.3714 50.0368 68.1207C40.3194 72.0878 31.7988 70.5199 28.0168 61.7639L35.9566 58.5225C37.72 62.5033 42.1134 63.6131 47.3869 61.4602C52.2456 59.4767 54.1838 56.266 52.7567 52.7701C51.8133 50.4592 49.9751 49.3432 44.6217 50.2844C39.3276 51.2013 35.8969 51.7723 32.6041 51.6649C27.6231 51.4863 24.0919 49.6098 22.06 44.6325C19.1814 37.5815 21.9248 30.5857 31.5237 26.667C41.4782 22.6032 49.2491 25.7213 52.6175 33.1255Z"/>
</mask>
<path d="M52.6175 33.1255L52.9954 34.0513L53.9584 33.6582L53.5277 32.7114L52.6175 33.1255ZM44.7961 36.3185L43.9139 36.7893L44.3387 37.5853L45.1741 37.2443L44.7961 36.3185ZM37.5023 43.5129L37.6507 44.5019L37.6537 44.5014L37.5023 43.5129ZM50.578 42.1843L50.5436 43.1837L50.5442 43.1837L50.578 42.1843ZM28.0168 61.7639L27.6388 60.8381L26.6942 61.2237L27.0988 62.1604L28.0168 61.7639ZM35.9566 58.5225L36.871 58.1175L36.4777 57.2297L35.5787 57.5967L35.9566 58.5225ZM44.6217 50.2844L44.7924 51.2697L44.7949 51.2692L44.6217 50.2844ZM32.6041 51.6649L32.5682 52.6643L32.5715 52.6644L32.6041 51.6649ZM52.6175 33.1255L52.2395 32.1997L44.4182 35.3927L44.7961 36.3185L45.1741 37.2443L52.9954 34.0513L52.6175 33.1255ZM44.7961 36.3185L45.6784 35.8477C44.5601 33.752 43.0485 32.3128 41.0261 31.7499C39.0389 31.1969 36.7442 31.5436 34.1537 32.6011L34.5316 33.527L34.9096 34.4528C37.2963 33.4784 39.104 33.291 40.4898 33.6767C41.8405 34.0526 42.9725 35.0251 43.9139 36.7893L44.7961 36.3185ZM34.5316 33.527L34.1537 32.6011C31.7561 33.5799 29.9579 34.8113 28.9364 36.3106C27.8746 37.869 27.7158 39.6275 28.4415 41.4052L29.3674 41.0272L30.2932 40.6493C29.8094 39.4643 29.9219 38.4161 30.5892 37.4367C31.2968 36.3982 32.6854 35.3608 34.9096 34.4528L34.5316 33.527ZM29.3674 41.0272L28.4415 41.4052C29.0561 42.9106 30.1069 43.9365 31.7145 44.4305C33.2386 44.8988 35.2008 44.8696 37.6507 44.5018L37.5023 43.5129L37.3539 42.524C34.9837 42.8797 33.3864 42.8519 32.302 42.5187C31.3012 42.2112 30.6946 41.6325 30.2932 40.6493L29.3674 41.0272ZM37.5023 43.5129L37.6537 44.5014C42.5645 43.7489 47.2218 43.0693 50.5436 43.1837L50.578 42.1843L50.6124 41.1848C47.0631 41.0627 42.1988 41.7816 37.3508 42.5245L37.5023 43.5129ZM50.578 42.1843L50.5442 43.1837C52.4866 43.2494 54.2413 43.5947 55.7604 44.5146C57.2651 45.4257 58.6371 46.9607 59.709 49.5862L60.6348 49.2082L61.5606 48.8303C60.3587 45.886 58.7351 43.9778 56.7963 42.8038C54.8719 41.6385 52.735 41.2567 50.6119 41.1848L50.578 42.1843ZM60.6348 49.2082L59.709 49.5862C61.3674 53.6484 61.0114 57.1016 59.2511 59.9809C57.4605 62.9098 54.1417 65.3648 49.6589 67.1949L50.0368 68.1207L50.4148 69.0465C55.1161 67.1273 58.8621 64.4515 60.9574 61.0241C63.083 57.5473 63.4339 53.4189 61.5606 48.8303L60.6348 49.2082ZM50.0368 68.1207L49.6589 67.1949C44.9213 69.129 40.5916 69.6639 37.0522 68.7455C33.558 67.8389 30.7141 65.4867 28.9348 61.3674L28.0168 61.7639L27.0988 62.1604C29.1015 66.7971 32.4089 69.6069 36.5499 70.6814C40.6456 71.7442 45.4349 71.0795 50.4148 69.0465L50.0368 68.1207ZM28.0168 61.7639L28.3948 62.6897L36.3346 59.4483L35.9566 58.5225L35.5787 57.5967L27.6388 60.8381L28.0168 61.7639ZM35.9566 58.5225L35.0423 58.9275C36.047 61.1955 37.8303 62.6778 40.1077 63.2603C42.3522 63.8344 44.9942 63.5172 47.7648 62.3861L47.3869 61.4602L47.0089 60.5344C44.5061 61.5562 42.3147 61.7604 40.6033 61.3227C38.9248 60.8933 37.6297 59.8303 36.871 58.1175L35.9566 58.5225ZM47.3869 61.4602L47.7648 62.3861C50.3085 61.3477 52.2173 59.9379 53.2811 58.2056C54.3711 56.4307 54.5093 54.4175 53.6825 52.3921L52.7567 52.7701L51.8308 53.148C52.4312 54.6185 52.3139 55.9587 51.5768 57.159C50.8136 58.4019 49.324 59.5893 47.0089 60.5344L47.3869 61.4602ZM52.7567 52.7701L53.6825 52.3921C53.1349 51.0507 52.264 49.9383 50.6826 49.3672C49.1861 48.8267 47.1769 48.8198 44.4486 49.2995L44.6217 50.2844L44.7949 51.2692C47.4199 50.8077 49.0065 50.8883 50.0033 51.2482C50.9151 51.5776 51.435 52.1785 51.8308 53.148L52.7567 52.7701ZM44.6217 50.2844L44.4511 49.299C39.1295 50.2208 35.8069 50.7689 32.6367 50.6655L32.6041 51.6649L32.5715 52.6644C35.987 52.7758 39.5257 52.1819 44.7924 51.2697L44.6217 50.2844ZM32.6041 51.6649L32.6399 50.6656C30.2615 50.5803 28.3239 50.0925 26.7609 49.1032C25.209 48.121 23.9387 46.5887 22.9858 44.2546L22.06 44.6325L21.1342 45.0105C22.2132 47.6537 23.7244 49.5482 25.6913 50.7932C27.6472 52.0312 29.9657 52.571 32.5682 52.6643L32.6041 51.6649ZM22.06 44.6325L22.9858 44.2546C21.6358 40.9478 21.6304 37.7378 23.0111 34.9144C24.3992 32.0761 27.2573 29.4888 31.9017 27.5928L31.5237 26.667L31.1458 25.7412C26.1912 27.7638 22.8782 30.6338 21.2145 34.0358C19.5434 37.4528 19.6056 41.2662 21.1342 45.0105L22.06 44.6325ZM31.5237 26.667L31.9017 27.5928C36.7153 25.6277 40.8962 25.4403 44.2255 26.5449C47.5424 27.6453 50.1261 30.0639 51.7072 33.5396L52.6175 33.1255L53.5277 32.7114C51.7405 28.7829 48.7546 25.9403 44.8553 24.6466C40.9684 23.357 36.2866 23.6425 31.1458 25.7412L31.5237 26.667Z" fill="#71717A" mask="url(#path-1-outside-1_5290_352)"/>
<mask id="path-3-outside-2_5290_352" maskUnits="userSpaceOnUse" x="20.3616" y="15.8248" width="53.3233" height="58.8019" fill="black">
<rect fill="white" x="20.3616" y="15.8248" width="53.3233" height="58.8019"/>
<path d="M58.4381 30.8965L50.6168 34.0895C48.5571 30.2296 45.3295 29.2661 40.3523 31.298C35.7306 33.1847 33.9786 35.8356 35.188 38.7982C36.204 41.2868 38.5029 42.0074 43.323 41.2839C48.2023 40.5363 52.9632 39.837 56.3987 39.9553C60.4643 40.0928 64.1817 41.4095 66.4555 46.9792C69.9871 55.6301 65.0417 62.1424 55.8575 65.8917C46.1401 69.8588 37.6195 68.2909 33.8375 59.5349L41.7773 56.2935C43.5407 60.2743 47.9341 61.3841 53.2075 59.2312C58.0663 57.2477 60.0045 54.037 58.5773 50.5411C57.6339 48.2302 55.7958 47.1142 50.4424 48.0553C45.1483 48.9723 41.7176 49.5433 38.4248 49.4359C33.4438 49.2573 29.9126 47.3808 27.8807 42.4035C25.0021 35.3525 27.7455 28.3567 37.3444 24.438C47.2988 20.3742 55.0698 23.4923 58.4381 30.8965Z"/>
</mask>
<path d="M58.4381 30.8965L50.6168 34.0895C48.5571 30.2296 45.3295 29.2661 40.3523 31.298C35.7306 33.1847 33.9786 35.8356 35.188 38.7982C36.204 41.2868 38.5029 42.0074 43.323 41.2839C48.2023 40.5363 52.9632 39.837 56.3987 39.9553C60.4643 40.0928 64.1817 41.4095 66.4555 46.9792C69.9871 55.6301 65.0417 62.1424 55.8575 65.8917C46.1401 69.8588 37.6195 68.2909 33.8375 59.5349L41.7773 56.2935C43.5407 60.2743 47.9341 61.3841 53.2075 59.2312C58.0663 57.2477 60.0045 54.037 58.5773 50.5411C57.6339 48.2302 55.7958 47.1142 50.4424 48.0553C45.1483 48.9723 41.7176 49.5433 38.4248 49.4359C33.4438 49.2573 29.9126 47.3808 27.8807 42.4035C25.0021 35.3525 27.7455 28.3567 37.3444 24.438C47.2988 20.3742 55.0698 23.4923 58.4381 30.8965Z" fill="#D9D9D9"/>
<path d="M58.4381 30.8965L58.8161 31.8223L59.7791 31.4292L59.3484 30.4824L58.4381 30.8965ZM50.6168 34.0895L49.7345 34.5603L50.1593 35.3563L50.9948 35.0153L50.6168 34.0895ZM43.323 41.2839L43.4714 42.2728L43.4744 42.2724L43.323 41.2839ZM56.3987 39.9553L56.3643 40.9547L56.3649 40.9547L56.3987 39.9553ZM33.8375 59.5349L33.4595 58.609L32.5149 58.9947L32.9194 59.9314L33.8375 59.5349ZM41.7773 56.2935L42.6916 55.8885L42.2984 55.0007L41.3994 55.3677L41.7773 56.2935ZM50.4424 48.0553L50.6131 49.0407L50.6156 49.0402L50.4424 48.0553ZM38.4248 49.4359L38.3889 50.4353L38.3922 50.4354L38.4248 49.4359ZM58.4381 30.8965L58.0602 29.9706L50.2388 33.1637L50.6168 34.0895L50.9948 35.0153L58.8161 31.8223L58.4381 30.8965ZM50.6168 34.0895L51.499 33.6187C50.3808 31.523 48.8692 30.0838 46.8468 29.5209C44.8596 28.9679 42.5649 29.3146 39.9744 30.3721L40.3523 31.298L40.7303 32.2238C43.117 31.2494 44.9247 31.062 46.3105 31.4477C47.6612 31.8236 48.7932 32.7961 49.7345 34.5603L50.6168 34.0895ZM40.3523 31.298L39.9744 30.3721C37.5768 31.3509 35.7786 32.5823 34.7571 34.0816C33.6953 35.64 33.5365 37.3984 34.2622 39.1762L35.188 38.7982L36.1139 38.4203C35.6301 37.2353 35.7426 36.1871 36.4099 35.2077C37.1175 34.1692 38.5061 33.1318 40.7303 32.2238L40.3523 31.298ZM35.188 38.7982L34.2622 39.1762C34.8768 40.6816 35.9276 41.7075 37.5352 42.2015C39.0593 42.6698 41.0214 42.6406 43.4714 42.2728L43.323 41.2839L43.1745 40.295C40.8044 40.6507 39.207 40.6229 38.1227 40.2897C37.1219 39.9822 36.5153 39.4035 36.1139 38.4203L35.188 38.7982ZM43.323 41.2839L43.4744 42.2724C48.3852 41.5199 53.0425 40.8403 56.3643 40.9547L56.3987 39.9553L56.4331 38.9558C52.8838 38.8337 48.0194 39.5526 43.1715 40.2955L43.323 41.2839ZM56.3987 39.9553L56.3649 40.9547C58.3073 41.0204 60.062 41.3657 61.581 42.2856C63.0858 43.1967 64.4578 44.7317 65.5297 47.3572L66.4555 46.9792L67.3813 46.6013C66.1793 43.657 64.5558 41.7488 62.617 40.5748C60.6925 39.4095 58.5557 39.0277 56.4325 38.9558L56.3987 39.9553ZM66.4555 46.9792L65.5297 47.3572C67.188 51.4194 66.832 54.8726 65.0717 57.7519C63.2812 60.6808 59.9624 63.1358 55.4796 64.9659L55.8575 65.8917L56.2355 66.8175C60.9368 64.8983 64.6828 62.2225 66.7781 58.7951C68.9037 55.3183 69.2546 51.1899 67.3813 46.6013L66.4555 46.9792ZM55.8575 65.8917L55.4796 64.9659C50.742 66.9 46.4123 67.4349 42.8729 66.5165C39.3786 65.6098 36.5348 63.2577 34.7555 59.1384L33.8375 59.5349L32.9194 59.9314C34.9222 64.5681 38.2296 67.3779 42.3705 68.4524C46.4663 69.5152 51.2556 68.8505 56.2355 66.8175L55.8575 65.8917ZM33.8375 59.5349L34.2154 60.4607L42.1553 57.2193L41.7773 56.2935L41.3994 55.3677L33.4595 58.609L33.8375 59.5349ZM41.7773 56.2935L40.863 56.6985C41.8677 58.9665 43.651 60.4488 45.9283 61.0313C48.1729 61.6054 50.8148 61.2882 53.5855 60.1571L53.2075 59.2312L52.8296 58.3054C50.3268 59.3272 48.1353 59.5314 46.424 59.0937C44.7454 58.6643 43.4504 57.6013 42.6916 55.8885L41.7773 56.2935ZM53.2075 59.2312L53.5855 60.1571C56.1291 59.1186 58.038 57.7089 59.1018 55.9766C60.1917 54.2017 60.33 52.1885 59.5032 50.1631L58.5773 50.5411L57.6515 50.919C58.2518 52.3895 58.1346 53.7297 57.3975 54.93C56.6343 56.1729 55.1447 57.3603 52.8296 58.3054L53.2075 59.2312ZM58.5773 50.5411L59.5032 50.1631C58.9555 48.8217 58.0847 47.7093 56.5033 47.1382C55.0068 46.5977 52.9975 46.5908 50.2692 47.0705L50.4424 48.0553L50.6156 49.0402C53.2406 48.5787 54.8272 48.6593 55.8239 49.0192C56.7358 49.3486 57.2557 49.9495 57.6515 50.919L58.5773 50.5411ZM50.4424 48.0553L50.2717 47.07C44.9501 47.9918 41.6275 48.5399 38.4574 48.4365L38.4248 49.4359L38.3922 50.4354C41.8077 50.5468 45.3464 49.9529 50.6131 49.0407L50.4424 48.0553ZM38.4248 49.4359L38.4606 48.4366C36.0821 48.3513 34.1445 47.8635 32.5816 46.8742C31.0297 45.892 29.7593 44.3596 28.8065 42.0256L27.8807 42.4035L26.9548 42.7815C28.0339 45.4247 29.5451 47.3192 31.512 48.5642C33.4679 49.8022 35.7864 50.342 38.3889 50.4353L38.4248 49.4359ZM27.8807 42.4035L28.8065 42.0256C27.4565 38.7188 27.4511 35.5088 28.8318 32.6854C30.2199 29.8471 33.078 27.2598 37.7224 25.3638L37.3444 24.438L36.9664 23.5122C32.0119 25.5348 28.6988 28.4048 27.0351 31.8068C25.3641 35.2238 25.4263 39.0372 26.9548 42.7815L27.8807 42.4035ZM37.3444 24.438L37.7224 25.3638C42.536 23.3987 46.7169 23.2113 50.0462 24.3159C53.3631 25.4163 55.9468 27.8349 57.5279 31.3106L58.4381 30.8965L59.3484 30.4824C57.5612 26.5539 54.5752 23.7113 50.676 22.4176C46.7891 21.128 42.1072 21.4135 36.9664 23.5122L37.3444 24.438Z" fill="#71717A" mask="url(#path-3-outside-2_5290_352)"/>
</svg>
