<svg width="36" height="36" viewBox="0 0 36 36" fill="none" xmlns="http://www.w3.org/2000/svg">
<g clip-path="url(#clip0_5155_572)">
<mask id="mask0_5155_572" style="mask-type:alpha" maskUnits="userSpaceOnUse" x="0" y="0" width="36" height="36">
<path d="M18 36C27.9411 36 36 27.9411 36 18C36 8.05888 27.9411 0 18 0C8.05888 0 0 8.05888 0 18C0 27.9411 8.05888 36 18 36Z" fill="black"/>
</mask>
<g mask="url(#mask0_5155_572)">
<path d="M18 35.3996C27.6098 35.3996 35.4 27.6094 35.4 17.9996C35.4 8.38985 27.6098 0.599609 18 0.599609C8.39025 0.599609 0.600006 8.38985 0.600006 17.9996C0.600006 27.6094 8.39025 35.3996 18 35.3996Z" fill="black" stroke="white" stroke-width="6"/>
<path d="M29.9016 31.5038L13.8284 10.7998H10.8V25.1938H13.2227V13.8765L27.9998 32.9688C28.6666 32.5226 29.3018 32.0328 29.9016 31.5038Z" fill="url(#paint0_linear_5155_572)"/>
<path d="M25.4 10.7998H23V25.1998H25.4V10.7998Z" fill="url(#paint1_linear_5155_572)"/>
</g>
</g>
<defs>
<linearGradient id="paint0_linear_5155_572" x1="21.8" y1="23.2998" x2="28.9" y2="32.0998" gradientUnits="userSpaceOnUse">
<stop stop-color="white"/>
<stop offset="1" stop-color="white" stop-opacity="0"/>
</linearGradient>
<linearGradient id="paint1_linear_5155_572" x1="24.2" y1="10.7998" x2="24.1598" y2="21.3748" gradientUnits="userSpaceOnUse">
<stop stop-color="white"/>
<stop offset="1" stop-color="white" stop-opacity="0"/>
</linearGradient>
<clipPath id="clip0_5155_572">
<rect width="36" height="36" fill="white"/>
</clipPath>
</defs>
</svg>
