<svg width="40" height="36" viewBox="0 0 40 36" fill="none" xmlns="http://www.w3.org/2000/svg">
<g clip-path="url(#clip0_5343_10)">
<path d="M20.0703 14.1328C17.9543 14.1328 16.239 15.8485 16.239 17.9648C16.239 20.0812 17.9543 21.7969 20.0703 21.7969C22.1863 21.7969 23.9016 20.0812 23.9016 17.9648C23.9016 15.8485 22.1863 14.1328 20.0703 14.1328Z" fill="#58C4DC"/>
<path d="M39.9972 17.9996C39.9972 14.9912 37.2118 12.3526 32.7769 10.6161C32.8362 10.2251 32.8898 9.83827 32.9279 9.45851C33.3653 5.13573 32.324 2.01576 29.9972 0.671776C27.3938 -0.831739 23.7167 0.259544 19.9986 3.23551C16.2805 0.259544 12.6034 -0.831739 10 0.671776C7.6732 2.01576 6.63186 5.13573 7.06928 9.45851C7.10738 9.83827 7.15959 10.2265 7.22026 10.619C6.85057 10.7601 6.48794 10.9098 6.13941 11.0665C2.18005 12.8467 0 15.3116 0 17.9996C0 21.008 2.78538 23.6466 7.22026 25.3831C7.15959 25.7741 7.10738 26.1609 7.06928 26.5407C6.63186 30.8635 7.6732 33.9834 10 35.3274C10.8 35.7812 11.7065 36.0131 12.6259 35.9994C14.83 35.9994 17.4037 34.839 19.9986 32.7637C22.5921 34.839 25.1672 35.9994 27.3741 35.9994C28.2935 36.0129 29.1999 35.781 30 35.3274C32.3268 33.9834 33.3681 30.8635 32.9307 26.5407C32.8926 26.1609 32.839 25.7741 32.7797 25.3831C37.2146 23.6494 40 21.0066 40 17.9996M27.3571 1.90565C27.9483 1.89138 28.5327 2.03462 29.0504 2.3207C30.666 3.25387 31.3913 5.78514 31.0385 9.2651C31.0145 9.50228 30.9863 9.74227 30.9524 9.98368C29.1084 9.42807 27.2201 9.03179 25.3083 8.79922C24.1494 7.25794 22.8606 5.81881 21.4562 4.49762C23.6616 2.79223 25.7316 1.90565 27.3557 1.90565M26.598 21.8113C25.8844 23.0506 25.1073 24.2522 24.2698 25.4113C22.8503 25.5572 21.4242 25.6298 19.9972 25.6287C18.5707 25.6297 17.145 25.5571 15.726 25.4113C14.8907 24.2521 14.116 23.0506 13.4048 21.8113C12.6912 20.5755 12.0427 19.3032 11.4618 17.9996C12.0427 16.696 12.6912 15.4237 13.4048 14.1879C14.1149 12.9536 14.8872 11.7563 15.7189 10.6006C17.1406 10.4511 18.5691 10.3767 19.9986 10.3776C21.4251 10.3767 22.8507 10.4493 24.2698 10.595C25.1043 11.7525 25.8795 12.9516 26.5924 14.1879C27.3054 15.424 27.9539 16.6963 28.5353 17.9996C27.9539 19.3029 27.3054 20.5752 26.5924 21.8113M29.5061 20.3996C29.954 21.6213 30.3216 22.871 30.6067 24.1407C29.3694 24.5267 28.108 24.8308 26.8308 25.0513C27.3162 24.3191 27.7866 23.5572 28.2418 22.7657C28.692 21.9836 29.1139 21.1944 29.5118 20.4052M17.319 27.4485C18.1967 27.5021 19.0927 27.5332 20 27.5332C20.9073 27.5332 21.8089 27.5021 22.688 27.4485C21.8545 28.4473 20.9566 29.3905 20 30.272C19.0455 29.3906 18.1499 28.4474 17.319 27.4485ZM13.1678 25.0485C11.8901 24.829 10.6283 24.5258 9.39043 24.1407C9.67441 22.8731 10.0406 21.6252 10.4868 20.4052C10.8791 21.1944 11.2996 21.9836 11.7567 22.7657C12.2139 23.5478 12.6866 24.3186 13.1678 25.0513M10.4868 15.5926C10.0422 14.3771 9.67696 13.134 9.39325 11.8712C10.6281 11.4857 11.8865 11.1806 13.1607 10.9578C12.6781 11.6877 12.2054 12.4444 11.7497 13.2335C11.2939 14.0227 10.8777 14.802 10.4798 15.5926M22.6796 8.54935C21.8019 8.4957 20.9059 8.46464 19.9915 8.46464C19.0847 8.46464 18.1911 8.49288 17.3106 8.54935C18.1414 7.55041 19.037 6.6072 19.9915 5.72584C20.9485 6.60697 21.8464 7.55018 22.6796 8.54935ZM28.239 13.2335C27.7819 12.4411 27.3092 11.6787 26.8209 10.9465C28.1015 11.167 29.3662 11.4716 30.6067 11.8585C30.3221 13.126 29.9559 14.3737 29.5104 15.594C29.1181 14.8048 28.6962 14.0156 28.2404 13.2349M8.9643 9.26651C8.60731 5.78796 9.33681 3.25528 10.951 2.32211C11.4689 2.03648 12.0531 1.89326 12.6443 1.90706C14.2684 1.90706 16.3384 2.79364 18.5438 4.49903C17.1384 5.82116 15.8487 7.26123 14.6889 8.80346C12.7776 9.03713 10.8895 9.43194 9.04473 9.98368C9.01228 9.74227 8.98264 9.50369 8.96007 9.26651M6.92112 12.8044C7.13842 12.7102 7.35995 12.6161 7.58572 12.522C8.02956 14.3955 8.63141 16.2279 9.38479 17.9996C8.62998 19.7748 8.02765 21.611 7.58431 23.4885C3.98899 22.0132 1.9049 19.969 1.9049 17.9996C1.9049 16.1333 3.73924 14.2401 6.92112 12.8044ZM10.951 33.6771C9.33681 32.7439 8.60731 30.2112 8.9643 26.7327C8.98688 26.4955 9.01651 26.2569 9.04896 26.0141C10.8931 26.5696 12.7813 26.9659 14.6931 27.1986C15.8524 28.7404 17.1411 30.1805 18.5452 31.503C15.4706 33.879 12.6612 34.6625 10.9553 33.6771M31.0371 26.7327C31.3899 30.2127 30.6646 32.7439 29.049 33.6771C27.3444 34.6653 24.5337 33.879 21.4604 31.503C22.8641 30.1804 24.1523 28.7404 25.3111 27.1986C27.2229 26.966 29.1112 26.5697 30.9553 26.0141C30.9891 26.2569 31.0174 26.4955 31.0413 26.7327M32.4213 23.4857C31.9767 21.6093 31.374 19.7741 30.6194 17.9996C31.3736 16.2242 31.9759 14.388 32.4199 12.5107C36.0082 13.986 38.0979 16.0302 38.0979 17.9996C38.0979 19.969 36.0138 22.0132 32.4185 23.4885" fill="#58C4DC"/>
</g>
<defs>
<clipPath id="clip0_5343_10">
<rect width="40" height="36" fill="white"/>
</clipPath>
</defs>
</svg>
