<svg width="52" height="32" viewBox="0 0 52 32" fill="none" xmlns="http://www.w3.org/2000/svg">
<g clip-path="url(#clip0_5155_695)">
<path fill-rule="evenodd" clip-rule="evenodd" d="M26 0C19.0667 0 14.7333 3.49091 13 10.4727C15.6 6.98182 18.6333 5.67273 22.1 6.54545C24.0779 7.04291 25.4916 8.48873 27.0564 10.0878C29.6053 12.6933 32.5559 15.7091 39 15.7091C45.9333 15.7091 50.2667 12.2182 52 5.23636C49.4 8.72727 46.3667 10.0364 42.9 9.16364C40.9221 8.66618 39.5084 7.22036 37.9436 5.62133C35.3947 3.01576 32.4441 0 26 0ZM13 15.7091C6.06667 15.7091 1.73333 19.2 0 26.1818C2.6 22.6909 5.63333 21.3818 9.1 22.2545C11.0779 22.753 12.4916 24.1978 14.0564 25.7968C16.6053 28.4024 19.5559 31.4182 26 31.4182C32.9333 31.4182 37.2667 27.9273 39 20.9455C36.4 24.4364 33.3667 25.7455 29.9 24.8727C27.9221 24.3753 26.5084 22.9295 24.9436 21.3304C22.3947 18.7248 19.4441 15.7091 13 15.7091Z" fill="#38BDF8"/>
</g>
<defs>
<clipPath id="clip0_5155_695">
<rect width="52" height="32" fill="white"/>
</clipPath>
</defs>
</svg>
